<svg width="30" height="30" viewBox="0 0 30 30" fill="none" xmlns="http://www.w3.org/2000/svg">
<path id="Union" fill-rule="evenodd" clip-rule="evenodd" d="M4.41494 0.757497C3.40496 -0.252479 1.76747 -0.252479 0.75749 0.757497C-0.252486 1.76747 -0.252486 3.40497 0.75749 4.41495L11.3426 15L0.757494 25.5851C-0.252484 26.5951 -0.252484 28.2325 0.757494 29.2425C1.76747 30.2525 3.40496 30.2525 4.41494 29.2425L15 18.6575L25.5851 29.2425C26.595 30.2525 28.2325 30.2525 29.2425 29.2425C30.2525 28.2325 30.2525 26.5951 29.2425 25.5851L18.6574 15L29.2425 4.41495C30.2525 3.40497 30.2525 1.76747 29.2425 0.757497C28.2325 -0.252479 26.595 -0.252479 25.5851 0.757497L15 11.3426L4.41494 0.757497Z" fill="white" fill-opacity="0.36"/>
</svg>
