<svg width="50" height="50" viewBox="0 0 50 50" fill="none" xmlns="http://www.w3.org/2000/svg">
<path id="Union" fill-rule="evenodd" clip-rule="evenodd" d="M27.3585 2.35849C27.3585 1.05593 26.3025 0 25 0C23.6974 0 22.6415 1.05593 22.6415 2.35849V22.1612H2.35849C1.05593 22.1612 0 23.2172 0 24.5197C0 25.8223 1.05593 26.8782 2.35849 26.8782H22.6415V47.6415C22.6415 48.9441 23.6974 50 25 50C26.3025 50 27.3585 48.9441 27.3585 47.6415V26.8782H47.6415C48.9441 26.8782 50 25.8223 50 24.5197C50 23.2172 48.9441 22.1612 47.6415 22.1612H27.3585V2.35849Z" fill="white" fill-opacity="0.36"/>
</svg>
