<svg width="55" height="55" viewBox="0 0 55 55" fill="none" xmlns="http://www.w3.org/2000/svg">
<g id="Group 3">
<g id="Vector">
<path fill-rule="evenodd" clip-rule="evenodd" d="M5.52434 29.8076L1.37109 34.4633L3.72566 40.3721L9.94403 40.9C11.0398 42.3272 12.3009 43.6195 13.7021 44.7497L14.0559 50.9143L19.8585 53.41L24.5814 49.4288C26.3433 49.6733 28.1258 49.69 29.89 49.4786L34.5509 53.6299L40.4638 51.2772L40.9921 45.0618C42.4209 43.9667 43.7142 42.7064 44.8444 41.3072L51.0146 40.9542L53.5115 35.1565L49.4249 30.4776C49.6684 28.7189 49.6845 26.9362 49.4731 25.1734L53.6287 20.5178L51.2741 14.6089L45.0534 14.0809C43.9577 12.6537 42.6966 11.3615 41.2954 10.2315L41.0197 4.08541L35.2171 1.58998L30.4942 5.57116C28.7346 5.32671 26.9497 5.30995 25.1855 5.52134L20.5269 1.37009L14.6118 3.72276L14.0835 9.93817C12.6569 11.033 11.3637 12.2936 10.2312 13.6928L4.09322 13.9731L1.59621 19.771L5.57946 24.491C5.33367 26.2535 5.313 28.0404 5.52434 29.8076ZM5.14987 15.5132L10.3 15.277L11.0168 15.2421L11.4647 14.6818C12.5191 13.38 13.7228 12.2068 15.0529 11.187L15.5972 10.7633L15.657 10.0757L16.1026 4.83069L20.203 3.19828L24.664 7.17441L25.3716 7.09018C27.0003 6.89485 28.6473 6.91022 30.2737 7.13654L30.972 7.23524L35.4905 3.42552L39.4898 5.14492L39.7218 10.2953L39.7563 11.0114L40.3168 11.4581C41.6192 12.5119 42.7931 13.7155 43.813 15.0436L44.238 15.5887L50.1738 16.0914L51.8071 20.1901L47.8261 24.6494L47.9111 25.3549C48.1064 26.983 48.0902 28.6294 47.8628 30.2533L47.7641 30.9685L48.2373 31.512L51.6692 35.442L49.951 39.4331L44.0496 39.7712L43.6085 40.3225C42.5541 41.6242 41.3505 42.7973 40.0204 43.8171L39.476 44.2408L39.4186 44.9285L38.9729 50.1734L34.8703 51.8058L30.4092 47.8297L29.7017 47.9139C28.073 48.1095 26.426 48.0939 24.8019 47.8676L24.1013 47.7689L19.5828 51.5802L15.5766 49.8569L15.2803 44.6618L15.2389 43.9573L14.6876 43.5178C13.3851 42.4638 12.2113 41.2606 11.1914 39.9323L10.7687 39.3872L4.8306 38.8845L3.19961 34.7858L7.17826 30.3281L7.09554 29.6221C6.89799 27.9941 6.91406 26.3476 7.14147 24.7237L7.24029 24.0255L6.78316 23.4859L3.42702 19.51L5.14987 15.5132Z" fill="white" fill-opacity="0.36"/>
<path fill-rule="evenodd" clip-rule="evenodd" d="M23.7521 36.1871C28.56 38.2545 34.1328 36.0367 36.2026 31.2339C38.2723 26.4307 36.0533 20.8612 31.2454 18.7938C26.4398 16.7265 20.8646 18.944 18.7949 23.7471C16.7436 28.5504 18.958 34.1073 23.7521 36.1871ZM30.6229 20.238C34.6291 21.9609 36.4783 26.6024 34.7554 30.6047C33.0303 34.6072 28.3854 36.4554 24.3792 34.7326C20.373 33.0097 18.5238 28.3684 20.249 24.3659C21.9764 20.3677 26.6167 18.5214 30.6229 20.238Z" fill="white" fill-opacity="0.36"/>
</g>
<path id="Vector (Stroke)" fill-rule="evenodd" clip-rule="evenodd" d="M20.769 0L25.5818 4.28862C27.0943 4.14518 28.6182 4.15969 30.1275 4.33191L35.013 0.213697L42.1698 3.29153L42.4552 9.6537C43.6295 10.6453 44.7049 11.7476 45.6671 12.9452L52.1038 13.4915L55 20.7597L50.7069 25.5693C50.85 27.0764 50.8365 28.5944 50.6663 30.0989L54.8944 34.9398L51.8132 42.0939L45.4285 42.4592C44.4351 43.6346 43.33 44.7115 42.1288 45.6749L41.5821 52.1062L34.3092 55L29.4941 50.7114C27.9816 50.8549 26.4589 50.8403 24.9483 50.668L20.0627 54.7863L12.9153 51.7123L12.5493 45.3332C11.3723 44.3399 10.2946 43.2356 9.33053 42.0357L2.89608 41.4894L0 34.2217L4.29095 29.4116C4.14785 27.895 4.16531 26.3686 4.33908 24.857L0.219 19.9749L3.29843 12.8246L9.65318 12.5345C10.6464 11.3618 11.7495 10.2871 12.9469 9.32552L13.4936 2.89371L20.769 0ZM17.221 5.65948L16.8373 10.1758L16.7327 11.3798L15.7774 12.1234L15.774 12.126C14.5192 13.0881 13.3832 14.1949 12.3879 15.4235L11.6086 16.3982L10.3561 16.4592L5.94462 16.6615L4.8046 19.3062L7.68731 22.7213L8.48751 23.6659L8.31458 24.8877C8.31453 24.8881 8.31448 24.8885 8.31443 24.8889C8.10133 26.4113 8.08638 27.9543 8.27147 29.4797L8.27176 29.4821L8.41667 30.7189L4.57067 35.0279L5.66065 37.767L11.3867 38.2517L12.1295 39.2097L12.1312 39.2119C13.0933 40.4649 14.2007 41.6003 15.4297 42.5953C15.4308 42.5962 15.432 42.5971 15.4331 42.5981L16.3904 43.3613L16.4629 44.5944L16.7176 49.0592L19.3785 50.2038L23.7421 46.5231L24.9656 46.6954C24.9657 46.6954 24.9658 46.6954 24.9659 46.6955C26.4888 46.9076 28.0332 46.9223 29.5605 46.7389L29.5616 46.7388L30.7993 46.5914L35.1124 50.4356L37.8547 49.3445L38.2384 44.8284L38.3388 43.6257L39.2961 42.8808L39.2994 42.8782C40.5544 41.916 41.6904 40.809 42.6859 39.5804C42.6866 39.5796 42.6873 39.5788 42.6879 39.5779L43.4544 38.6198L49.1523 38.2934L50.2866 35.6588L47.3437 32.2888L46.5172 31.3395L46.6899 30.0893C46.9031 28.5667 46.9183 27.023 46.7352 25.4964C46.7352 25.4962 46.7352 25.496 46.7351 25.4958L46.5863 24.2603L50.4358 19.9482L49.3443 17.2089L43.622 16.7243L42.876 15.7675L42.8734 15.7641C41.9111 14.5111 40.8036 13.3752 39.5748 12.3806C39.5737 12.3797 39.5726 12.3788 39.5715 12.3779L38.599 11.603L38.5388 10.3522L38.5387 10.3504L38.5386 10.3485L38.34 5.93897L35.6949 4.80179L31.3309 8.48125L30.1104 8.30875C30.11 8.3087 30.1097 8.30865 30.1094 8.3086C28.5843 8.09648 27.04 8.08211 25.5128 8.26526L24.2741 8.41274L19.9612 4.5686L17.221 5.65948ZM17.7071 23.2791C20.0354 17.8757 26.3073 15.3809 31.7139 17.7068C37.1226 20.0327 39.619 26.2984 37.2905 31.7019C34.9622 37.105 28.6927 39.5999 23.284 37.2742L23.2822 37.2735L23.2805 37.2727C17.8889 34.9338 15.3986 28.6844 17.7056 23.2826L17.7063 23.2808L17.7071 23.2791ZM30.1547 21.3252C26.7491 19.8668 22.8056 21.4363 21.3369 24.834C19.8706 28.2361 21.4423 32.1811 24.8475 33.6455C28.2527 35.1098 32.2007 33.5392 33.6674 30.1371M30.1547 21.3252C33.5598 22.7895 35.1318 26.7346 33.6676 30.1366L30.1547 21.3252Z" fill="white" fill-opacity="0.36"/>
</g>
</svg>
